<?xml version="1.0" encoding="utf-8"?>
<!-- Generator: Adobe Illustrator 16.0.3, SVG Export Plug-In . SVG Version: 6.00 Build 0)  -->
<!DOCTYPE svg PUBLIC "-//W3C//DTD SVG 1.1//EN" "http://www.w3.org/Graphics/SVG/1.1/DTD/svg11.dtd">
<svg version="1.1" id="Icon" xmlns="http://www.w3.org/2000/svg" xmlns:xlink="http://www.w3.org/1999/xlink" x="0px" y="0px"
	 width="512px" height="512px" viewBox="53.726 251.726 512 512" enable-background="new 53.726 251.726 512 512"
	 xml:space="preserve">
<rect id="Background_2_" x="53.726" y="251.726" fill="#2B82CB" width="512" height="512"/>
<g id="Icon">
	<g id="Bus">
		<path fill="#FFFFFF" d="M268.134,516.506c-26.287,0-47.576,21.287-47.576,47.566c0,26.283,21.289,47.568,47.576,47.568
			c26.275,0,47.57-21.287,47.57-47.568C315.704,537.793,294.409,516.506,268.134,516.506z M268.134,584.752
			c-11.424,0-20.686-9.254-20.686-20.68c0-11.428,9.262-20.678,20.686-20.678c11.42,0,20.678,9.25,20.678,20.678
			C288.812,575.498,279.554,584.752,268.134,584.752z"/>
		<path fill="#FFFFFF" d="M376.229,413.827l-17.055-62.263c-3.131-15.319-18.48-27.853-34.113-27.853H53.726v17.034h66.51v102.903
			h-66.51v120.262h158.575c0-30.932,25.169-56.096,56.104-56.096c30.932,0,56.099,25.168,56.099,56.096h28.984
			c15.635,0,28.428-12.791,28.428-28.426v-65.379C381.916,454.47,379.355,429.146,376.229,413.827z M246.731,443.649H137.289
			V340.746h109.442V443.649z M348.262,442.983l-13.02-30.832c-1.83-4.337-6.83-6.371-11.172-4.539
			c-4.338,1.832-6.369,6.835-4.537,11.174l10.498,24.863h-66.245l-0.002-102.903h56.308c11.729,0,23.07,9.434,25.213,20.962
			l15.283,60.981C362.398,432.442,357.051,440.673,348.262,442.983z"/>
	</g>
	<g id="Person">
		<path fill="#FFFFFF" d="M515.234,442.356c2.26,13.932-7.139,27.053-21.036,29.346c-13.933,2.275-27.105-7.158-29.365-21.051
			c-2.292-13.95,7.119-27.088,21.07-29.364C499.802,418.991,512.979,428.425,515.234,442.356z M507.267,543.608l22.588,36.11
			c3.195,5.059,9.866,6.723,15.023,3.686c5.192-3.066,6.996-9.67,4.115-14.928l-5.726-10.379
			c-4.993-8.869-9.858-17.779-14.811-26.667l-10.084-18.29c-1.139-2.119-2.293-4.481-3.5-6.997
			c-6.199-13.021-15.87-33.143-37.116-31.301c-18.153,1.574-36.583,10.212-54.724,25.609
			c-21.519,16.965-36.516,41.569-37.109,42.624c-0.705,1.102-1.376,2.188-1.913,3.223c-0.043,0.032-0.08,0.07-0.117,0.104v0.019
			c-2.002,3.791-2.997,7.269-0.484,11.67c1.97,3.482,5.671,5.638,9.671,5.638c4.833,0,7.296-2.276,9.696-5.744l0,0
			c0.032-0.032,0.032-0.069,0.032-0.104c0.671-0.996,1.342-2.064,2.067-3.203c0.139-0.213,12.74-20.419,32.222-37.044
			c5.996-4.701,11.712-7.949,17.112-9.738l-4.344,52.591c-0.434,5.192-2.069,14.158-3.502,19.19l-9.777,34.254
			c-1.262,4.327-4.933,11.502-7.809,15.017l-26.402,32.735c-3.363,4.147-7.16,8.861-4.023,15.392
			c1.844,3.846,5.744,6.315,10.023,6.315c5.119,0,7.878-2.963,11.331-6.71l26.743-28.834c4.772-5.151,10.979-14.08,14.045-20.415
			l13.264-26.978l49.058,82.424c2.409,4.08,5.447,9.125,12.112,9.125l0,0c3.82,0,7.307-1.935,9.356-5.116
			c3.489-5.42,1.16-10.411-0.883-14.824l-39.659-86.188c-1.546-3.387-2.394-10.27-1.721-13.978L507.267,543.608z"/>
		
			<rect id="Smartphone" x="546.167" y="546.542" transform="matrix(-0.7072 -0.707 0.707 -0.7072 540.7969 1352.0997)" fill="#FFFFFF" width="8.39" height="35.063"/>
	</g>
</g>
</svg>
