<?xml version="1.0" encoding="utf-8"?>
<!-- Generator: Adobe Illustrator 16.0.3, SVG Export Plug-In . SVG Version: 6.00 Build 0)  -->
<!DOCTYPE svg PUBLIC "-//W3C//DTD SVG 1.1//EN" "http://www.w3.org/Graphics/SVG/1.1/DTD/svg11.dtd">
<svg version="1.1" id="Icon" xmlns="http://www.w3.org/2000/svg" xmlns:xlink="http://www.w3.org/1999/xlink" x="0px" y="0px"
	 width="25.002px" height="46.752px" viewBox="0 0 25.002 46.752" enable-background="new 0 0 25.002 46.752" xml:space="preserve">
<g>
	<g>
		<path fill="#2B82CB" d="M12.5,0C5.597,0,0,5.596,0,12.5c0,1.348,0.221,2.643,0.614,3.857C1.5,19.482,11.71,46.752,11.71,46.752
			s10.846-25.01,12.484-29.877c0.512-1.365,0.807-2.836,0.807-4.377C24.998,5.597,19.403,0,12.5,0z M12.5,22.354
			c-5.418,0-9.81-4.396-9.81-9.81c0-5.42,4.394-9.812,9.81-9.812c5.418,0,9.81,4.392,9.81,9.812
			C22.308,17.961,17.917,22.354,12.5,22.354z"/>
	</g>
</g>
<path fill="#2B82CB" d="M14.082,7.296c0,0.875-0.71,1.584-1.585,1.584s-1.585-0.709-1.585-1.584c0-0.876,0.71-1.585,1.585-1.585
	S14.082,6.42,14.082,7.296z M13.555,9.938h-2.115c-0.584,0-1.056,0.472-1.056,1.056v4.228h1.056v4.227h2.115v-4.227h1.056v-4.228
	C14.61,10.41,14.139,9.938,13.555,9.938z"/>
</svg>
