<?xml version="1.0" encoding="utf-8"?>
<!-- Generator: Adobe Illustrator 16.0.3, SVG Export Plug-In . SVG Version: 6.00 Build 0)  -->
<!DOCTYPE svg PUBLIC "-//W3C//DTD SVG 1.1//EN" "http://www.w3.org/Graphics/SVG/1.1/DTD/svg11.dtd">
<svg version="1.1" id="Icon" xmlns="http://www.w3.org/2000/svg" xmlns:xlink="http://www.w3.org/1999/xlink" x="0px" y="0px"
	 width="25.002px" height="46.752px" viewBox="0 0 25.002 46.752" enable-background="new 0 0 25.002 46.752" xml:space="preserve">
<g>
	<g>
		<path fill="#2B82CB" d="M12.5,0C5.597,0,0,5.596,0,12.5c0,1.348,0.221,2.643,0.614,3.857C1.5,19.482,11.71,46.752,11.71,46.752
			s10.846-25.01,12.485-29.877c0.511-1.365,0.806-2.836,0.806-4.377C24.998,5.597,19.404,0,12.5,0z M12.5,22.354
			c-5.418,0-9.81-4.396-9.81-9.81c0-5.42,4.394-9.812,9.81-9.812c5.418,0,9.809,4.392,9.809,9.812
			C22.308,17.961,17.917,22.354,12.5,22.354z"/>
		<path fill="#2B82CB" d="M16.669,5.711H8.329c-0.854,0-1.553,0.754-1.553,1.686v9.063c0,0.618,0.31,1.155,0.767,1.448v0.968
			c0,0.319,0.512,0.573,1.147,0.573c0.633,0,1.146-0.254,1.146-0.573v-0.731h1.404l0,0h2.904l0,0h1.078v0.731
			c0,0.319,0.514,0.573,1.146,0.573c0.636,0,1.147-0.254,1.147-0.573v-1.007c0.427-0.301,0.703-0.819,0.703-1.409V7.396
			C18.222,6.466,17.527,5.711,16.669,5.711z M10.087,6.429h4.823v0.47h-4.823V6.429z M11.052,15.402H8.007v-1.127h3.045V15.402z
			 M14.146,18.002h-2.904v-0.895h2.904V18.002z M17.144,15.402h-3.047v-1.127h3.047V15.402z M17.279,11.531
			c0,0.115-0.203,0.207-0.453,0.207h-8.65c-0.25,0-0.451-0.094-0.451-0.207V7.527c0-0.115,0.201-0.209,0.451-0.209h8.65
			c0.25,0,0.453,0.094,0.453,0.209V11.531L17.279,11.531z"/>
	</g>
</g>
</svg>
